<svg xmlns="http://www.w3.org/2000/svg" version="1.1" xmlns:xlink="http://www.w3.org/1999/xlink" xmlns:svgjs="http://svgjs.dev/svgjs" width="1500" height="541" viewBox="0 0 1500 541"><g transform="matrix(1,0,0,1,-0.9090909090909918,-0.24282609262121468)"><svg viewBox="0 0 396 143" data-background-color="#dddd6b" preserveAspectRatio="xMidYMid meet" height="541" width="1500" xmlns="http://www.w3.org/2000/svg" xmlns:xlink="http://www.w3.org/1999/xlink"><g id="tight-bounds" transform="matrix(1,0,0,1,0.2400000000000091,0.06418508548028967)"><svg viewBox="0 0 395.52 142.8716298290394" height="142.8716298290394" width="395.52"><g><svg viewBox="0 0 678.234301348662 244.99504459861245" height="142.8716298290394" width="395.52"><g transform="matrix(1,0,0,1,282.71430134866205,0)"><svg viewBox="0 0 395.52 244.99504459861245" height="244.99504459861245" width="395.52"><g id="textblocktransform"><svg viewBox="0 0 395.52 244.99504459861245" height="244.99504459861245" width="395.52" id="textblock"><g><svg viewBox="0 0 395.52 244.99504459861245" height="244.99504459861245" width="395.52"><g transform="matrix(1,0,0,1,0,0)"><svg width="395.52" viewBox="-12.5 -31.25 50.45 31.25" height="244.99504459861245" data-palette-color="#e91e63"><path d="M15.7-31.25L31.1-31.25Q34.7-31.25 36.33-30 37.95-28.75 37.95-26.15L37.95-26.15Q37.95-22.35 36.27-19.9 34.6-17.45 32.2-16.85L32.2-16.85 32.15-16.55Q36.65-15.7 36.65-10.6L36.65-10.6Q36.65-6.1 34.2-3.05 31.75 0 27.3 0L27.3 0 10.2 0 15.7-31.25ZM25.6-12.45L25.6-12.45 21.85-12.45 20.95-7.35 24.65-7.35Q25.9-7.35 26.55-8.35 27.2-9.35 27.2-10.9 27.2-12.45 25.6-12.45ZM27-24.4L27-24.4 24-24.4 23.15-19.75 26.1-19.75Q28.4-19.75 28.4-23L28.4-23Q28.4-24.4 27-24.4ZM9.1-2.4L8.7-0.15-12.5-2.4 9.1-2.4ZM10.8-12.05L10.4-9.8-10.8-12.05 10.8-12.05ZM11.65-16.85L11.25-14.6-9.95-16.85 11.65-16.85ZM12.5-21.65L12.1-19.4-9.1-21.65 12.5-21.65ZM13.3-26.45L12.95-24.2-8.25-26.45 13.3-26.45ZM9.95-7.25L9.55-5-11.65-7.25 9.95-7.25ZM14.15-31.25L13.75-29-7.4-31.25 14.15-31.25Z" opacity="1" transform="matrix(1,0,0,1,0,0)" fill="#b2572b" class="wordmark-text-0" data-fill-palette-color="primary" id="text-0"></path></svg></g></svg></g></svg></g></svg></g><g transform="matrix(1,0,0,1,0,7.063308858081541)"><svg viewBox="0 0 224.8768512 230.86842688244937" height="230.86842688244937" width="224.8768512"><g><svg xmlns="http://www.w3.org/2000/svg" xmlns:xlink="http://www.w3.org/1999/xlink" version="1.1" x="8" y="0" viewBox="9.286711308756878 5 81.42697059902345 90" enable-background="new 0 0 100 100" xml:space="preserve" height="230.86842688244937" width="208.8768512" class="icon-icon-0" data-fill-palette-color="accent" id="icon-0"><g fill="#b2572b" data-fill-palette-color="accent"><path fill="none" d="M72.534 90.829H27.466c-0.827 0-1.499 0.673-1.499 1.499 0 0.401 0.156 0.776 0.439 1.059 0.283 0.283 0.661 0.439 1.06 0.439h45.068c0.826 0 1.498-0.672 1.498-1.499C74.033 91.502 73.361 90.829 72.534 90.829z"></path><path fill="none" d="M71.514 82.768l-1.296 6.889h2.317c1.103 0 2.052 0.673 2.459 1.63 0.245-0.032 0.494-0.062 0.734-0.098 1.239-2.675-0.177-5.097-0.866-6.034C73.791 83.697 72.427 82.871 71.514 82.768z"></path><path fill="none" d="M29.783 89.657l-1.297-6.891c-0.915 0.094-2.291 0.919-3.372 2.388-0.687 0.937-2.104 3.358-0.867 6.032 0.247 0.037 0.505 0.068 0.759 0.101 0.407-0.957 1.356-1.63 2.46-1.63H29.783z"></path><path fill="none" d="M47.555 28.979c0.178-0.613-0.042-1.32-0.619-1.989-0.637-0.738-1.61-1.326-2.74-1.653-0.6-0.174-1.2-0.262-1.785-0.262-1.55 0-2.728 0.608-3 1.549-0.386 1.336 1.153 3.004 3.361 3.643 0.598 0.173 1.199 0.26 1.784 0.26C46.106 30.527 47.284 29.919 47.555 28.979z"></path><polygon fill="none" points="69.025,89.657 74.669,59.651 50.001,59.651 25.332,59.651 30.976,89.657  "></polygon><path fill="none" d="M80.765 59.312l0.531-0.247L80.76 59.3c-3.926-8.898-6.925-9.848-18.086-13.382l-1.962-0.623c-0.931 0.661-1.56 1.015-1.588 1.03l-0.565-1.028c0.117-0.064 11.616-6.536 9.108-16.746C64.572 15.947 55.629 6.173 50.001 6.173c-5.629 0-14.572 9.774-17.668 22.378-2.511 10.225 8.992 16.682 9.108 16.746l-0.565 1.028c-0.028-0.015-0.67-0.377-1.614-1.049l-1.863 0.593C26.19 49.421 23.178 50.376 19.242 59.3l-0.537-0.236 0.531 0.247-7.438 15.985c-1.665 3.87-1.775 7.104-0.328 9.612 1.69 2.929 5.619 4.999 11.437 6.056-0.676-2.101-0.239-4.46 1.262-6.503 1.179-1.605 2.759-2.672 4.1-2.844l-0.306-1.631-7.256-2.855 0.429-1.092 2.168 0.854-3.58-3.199 0.781-0.875 7.343 6.561-3.933-20.903h26.083 26.083l-3.932 20.903 7.343-6.561 0.781 0.875-3.58 3.199 2.166-0.854 0.43 1.092-7.254 2.855-0.308 1.635c1.337 0.181 2.906 1.244 4.078 2.839 1.502 2.044 1.938 4.405 1.26 6.508 5.832-1.055 9.77-3.129 11.462-6.062 1.447-2.508 1.337-5.741-0.329-9.611L80.765 59.312zM34.824 29.449h-1.173c0-8.616 7.334-15.625 16.349-15.625 9.015 0 16.349 7.009 16.349 15.625h-1.173c0-7.969-6.808-14.452-15.176-14.452C41.632 14.997 34.824 21.48 34.824 29.449zM38.283 26.299c0.422-1.456 2.042-2.397 4.127-2.397 0.696 0 1.406 0.105 2.111 0.308 1.346 0.39 2.52 1.104 3.304 2.015 0.844 0.98 1.149 2.074 0.857 3.079-0.421 1.456-2.04 2.396-4.127 2.396-0.695 0-1.405-0.102-2.11-0.306C39.53 30.55 37.702 28.313 38.283 26.299zM50.001 56.013l-5.998-5.547 0.796-0.861 5.202 4.811 5.201-4.811 0.796 0.861L50.001 56.013zM55.446 31.7c-2.087 0-3.707-0.94-4.127-2.396-0.291-1.006 0.014-2.099 0.858-3.079 0.784-0.91 1.957-1.625 3.304-2.015 0.704-0.203 1.415-0.308 2.111-0.308 2.086 0 3.705 0.941 4.126 2.397 0.291 1.005-0.013 2.099-0.857 3.079-0.784 0.91-1.957 1.625-3.303 2.015C56.852 31.597 56.142 31.7 55.446 31.7z"></path><path fill="none" d="M60.59 26.624c-0.272-0.941-1.449-1.549-2.999-1.549-0.586 0-1.187 0.088-1.785 0.262-1.131 0.326-2.105 0.914-2.742 1.653-0.577 0.67-0.797 1.377-0.62 1.989 0.271 0.94 1.449 1.548 3.001 1.548 0.585 0 1.185-0.087 1.784-0.26 1.13-0.327 2.103-0.915 2.74-1.654C60.548 27.943 60.767 27.237 60.59 26.624z"></path><path d="M50.001 14.997c8.368 0 15.176 6.483 15.176 14.452h1.173c0-8.616-7.334-15.625-16.349-15.625-9.015 0-16.349 7.009-16.349 15.625h1.173C34.824 21.48 41.632 14.997 50.001 14.997z" fill="#b2572b" data-fill-palette-color="accent"></path><path d="M48.682 29.304c0.291-1.006-0.013-2.099-0.857-3.079-0.784-0.91-1.957-1.625-3.304-2.015-0.705-0.203-1.415-0.308-2.111-0.308-2.085 0-3.705 0.941-4.127 2.397-0.581 2.014 1.247 4.251 4.162 5.095 0.705 0.204 1.415 0.306 2.11 0.306C46.642 31.7 48.261 30.76 48.682 29.304zM39.41 26.624c0.272-0.941 1.45-1.549 3-1.549 0.586 0 1.186 0.088 1.785 0.262 1.131 0.326 2.104 0.914 2.74 1.653 0.577 0.67 0.797 1.377 0.619 1.989-0.272 0.94-1.45 1.548-3 1.548-0.585 0-1.186-0.087-1.784-0.26C40.564 29.628 39.024 27.96 39.41 26.624z" fill="#b2572b" data-fill-palette-color="accent"></path><path d="M60.86 29.378c0.844-0.98 1.148-2.074 0.857-3.079-0.42-1.456-2.04-2.397-4.126-2.397-0.696 0-1.407 0.105-2.111 0.308-1.347 0.39-2.52 1.104-3.304 2.015-0.844 0.98-1.149 2.074-0.858 3.079 0.42 1.456 2.04 2.396 4.127 2.396 0.696 0 1.406-0.102 2.111-0.306C58.903 31.003 60.076 30.288 60.86 29.378zM57.231 30.267c-0.599 0.173-1.199 0.26-1.784 0.26-1.552 0-2.73-0.608-3.001-1.548-0.177-0.613 0.042-1.32 0.62-1.989 0.637-0.738 1.61-1.326 2.742-1.653 0.598-0.174 1.199-0.262 1.785-0.262 1.55 0 2.727 0.608 2.999 1.549 0.177 0.613-0.043 1.319-0.619 1.989C59.334 29.352 58.361 29.94 57.231 30.267z" fill="#b2572b" data-fill-palette-color="accent"></path><path d="M89.279 74.833l-0.539 0.233 0.531-0.247-7.439-15.991c-4.14-9.383-7.54-10.46-18.804-14.027l-1.167-0.371c3.484-2.771 8.838-8.451 6.944-16.158C65.535 14.952 56.18 5 50.001 5c-6.18 0-15.535 9.952-18.806 23.271-1.889 7.69 3.436 13.361 6.921 16.14l-1.071 0.34c-11.311 3.585-14.726 4.667-18.876 14.076l-7.44 15.991 0.531 0.247-0.539-0.233c-1.819 4.229-1.908 7.816-0.266 10.662 2.1 3.639 6.931 5.971 14.352 6.949 0.028 0.669 0.293 1.296 0.771 1.774C26.083 94.722 26.754 95 27.466 95h45.068c1.434 0 2.598-1.138 2.66-2.557 7.42-0.976 12.251-3.31 14.351-6.949C91.188 82.648 91.098 79.061 89.279 74.833zM25.007 91.287c-0.253-0.033-0.511-0.064-0.759-0.101-1.237-2.674 0.18-5.095 0.867-6.032 1.08-1.469 2.457-2.294 3.372-2.388l1.297 6.891h-2.317C26.362 89.657 25.413 90.33 25.007 91.287zM25.332 59.651h24.669 24.668l-5.644 30.006H30.976L25.332 59.651zM72.534 93.827H27.466c-0.4 0-0.777-0.157-1.06-0.439-0.283-0.283-0.439-0.658-0.439-1.059 0-0.827 0.672-1.499 1.499-1.499h45.068c0.826 0 1.498 0.673 1.498 1.499C74.033 93.155 73.361 93.827 72.534 93.827zM75.728 91.189c-0.24 0.036-0.489 0.065-0.734 0.098-0.407-0.957-1.356-1.63-2.459-1.63h-2.317l1.296-6.889c0.913 0.103 2.278 0.929 3.348 2.387C75.551 86.092 76.966 88.513 75.728 91.189zM88.53 84.907c-1.692 2.933-5.631 5.007-11.462 6.062 0.678-2.103 0.242-4.464-1.26-6.508-1.172-1.596-2.742-2.658-4.078-2.839l0.308-1.635 7.254-2.855-0.43-1.092-2.166 0.854 3.58-3.199-0.781-0.875-7.343 6.561 3.932-20.903H50.001 23.917l3.933 20.903-7.343-6.561-0.781 0.875 3.58 3.199-2.168-0.854-0.429 1.092 7.256 2.855 0.306 1.631c-1.342 0.172-2.921 1.239-4.1 2.844-1.501 2.043-1.938 4.402-1.262 6.503-5.818-1.057-9.748-3.127-11.437-6.056-1.448-2.508-1.337-5.742 0.328-9.612l7.438-15.985-0.531-0.247 0.537 0.236c3.936-8.924 6.948-9.879 18.157-13.431l1.863-0.593c0.944 0.672 1.586 1.034 1.614 1.049l0.565-1.028c-0.117-0.064-11.619-6.521-9.108-16.746C35.429 15.947 44.372 6.173 50.001 6.173c5.629 0 14.571 9.774 17.667 22.378 2.508 10.211-8.991 16.682-9.108 16.746l0.565 1.028c0.028-0.015 0.657-0.369 1.588-1.03l1.962 0.623c11.16 3.534 14.16 4.484 18.086 13.382l0.536-0.236-0.531 0.247 7.437 15.985C89.867 79.166 89.977 82.4 88.53 84.907z" fill="#b2572b" data-fill-palette-color="accent"></path><polygon points="50.001,54.415 44.799,49.605 44.003,50.466 50.001,56.013 55.998,50.466 55.202,49.605  " fill="#b2572b" data-fill-palette-color="accent"></polygon></g></svg></g></svg></g></svg></g><defs></defs></svg><rect width="395.52" height="142.8716298290394" fill="none" stroke="none" visibility="hidden"></rect></g></svg></g></svg>